<?xml version="1.0" encoding="iso-8859-1"?>
<!-- Uploaded to: SVG Repo, www.svgrepo.com, Generator: SVG Repo Mixer Tools -->
<!DOCTYPE svg PUBLIC "-//W3C//DTD SVG 1.1//EN" "http://www.w3.org/Graphics/SVG/1.1/DTD/svg11.dtd">
<svg fill="#000000" version="1.1" id="Capa_1" xmlns="http://www.w3.org/2000/svg" xmlns:xlink="http://www.w3.org/1999/xlink" 
	 width="800px" height="800px" viewBox="0 0 587.903 587.902"
	 xml:space="preserve">
<g>
	<g>
		<path d="M136.29,506.487h233.927c2.19,0,3.979-1.788,3.979-3.987V87c0-2.199-1.788-3.988-3.979-3.988H136.29
			c-2.209,0-3.988,1.789-3.988,3.988v415.51C132.302,504.709,134.081,506.487,136.29,506.487z M140.267,90.987h225.962v407.524
			H140.267V90.987z"/>
		<path d="M253.506,509.939c-15.75,0-28.563,12.823-28.563,28.582c0,15.75,12.813,28.573,28.563,28.573
			c15.769,0,28.582-12.823,28.582-28.573C282.098,522.763,269.285,509.939,253.506,509.939z M253.506,559.33
			c-11.465,0-20.789-9.333-20.789-20.809c0-11.475,9.323-20.808,20.789-20.808c11.485,0,20.818,9.333,20.818,20.808
			C274.324,549.997,264.991,559.33,253.506,559.33z"/>
		<path d="M260.611,527.534H246.42c-2.142,0-3.882,1.75-3.882,3.892v14.201c0,2.142,1.75,3.882,3.882,3.882h14.191
			c2.152,0,3.892-1.75,3.892-3.882v-14.201C264.513,529.274,262.763,527.534,260.611,527.534z M256.729,541.734h-6.417v-6.426h6.417
			V541.734z"/>
		<path d="M111.102,545.282c0,23.505,19.116,42.62,42.62,42.62H353.33c23.505,0,42.62-19.115,42.62-42.61l0.593-502.663
			c0-23.504-19.125-42.62-42.63-42.62H154.295c-23.504,0-42.62,19.087-42.62,42.515l-0.507,36.29
			c-2.744,2.4-4.131,6.617-4.131,12.556v13.971c0,5.881,1.368,10.079,4.055,12.499v4.092c-2.687,2.419-4.055,6.618-4.055,12.508
			v26.775c0,5.891,1.368,10.079,4.055,12.499v1.186c-2.687,2.419-4.055,6.608-4.055,12.489v26.775
			c0,5.891,1.368,10.079,4.055,12.498v318.623H111.102z M122.453,214.162v-26.775c0-0.067,0-0.125,0-0.191
			c2.458-1.319,4.054-3.901,4.054-6.78v-12.221c0-2.878-1.597-5.46-4.054-6.78c0-0.067,0-0.134,0-0.201v-26.775
			c0-0.067,0-0.134,0-0.201c2.458-1.319,4.054-3.911,4.054-6.79v-15.127c0-2.878-1.597-5.46-4.054-6.78c0-0.067,0-0.134,0-0.201
			V91.37c0-0.067,0-0.134,0-0.201c2.41-1.301,4.006-3.844,4.054-6.675l0.583-41.874c0-15.004,12.202-27.206,27.215-27.206h199.607
			c15.004,0,27.215,12.202,27.215,27.196l-0.583,502.662c0,15.004-12.202,27.206-27.215,27.206H153.722
			c-15.003,0-27.215-12.202-27.215-27.206v-324.13c0-2.878-1.597-5.46-4.054-6.78C122.453,214.295,122.453,214.229,122.453,214.162z
			"/>
		<circle cx="253.239" cy="34.349" r="5.24"/>
		<path d="M231.121,61.602h45.986c2.189,0,3.987-1.788,3.987-3.987c0-2.2-1.798-3.988-3.987-3.988h-45.986
			c-2.209,0-3.987,1.788-3.987,3.988C227.133,59.823,228.912,61.602,231.121,61.602z"/>
		<path d="M452.856,587.902h16.926c6.12,0,11.083-4.973,11.083-11.093V11.092c0-6.12-4.973-11.092-11.083-11.092h-16.926
			c-15.443,0-28.019,14.085-28.019,31.394v525.105C424.837,573.816,437.413,587.902,452.856,587.902z M440.262,31.394
			c0-8.807,5.651-15.979,12.594-15.979h12.594v557.073h-12.594c-6.952,0-12.594-7.172-12.594-15.979V31.394z"/>
		<path d="M455.093,129.505c-2.209,0-3.987,1.788-3.987,3.987v30.466c0,2.199,1.778,3.988,3.987,3.988
			c2.19,0,3.988-1.789,3.988-3.988v-30.466C459.082,131.293,457.292,129.505,455.093,129.505z"/>
		<path d="M455.093,180.549c-2.209,0-3.987,1.789-3.987,3.988v30.466c0,2.2,1.778,3.988,3.987,3.988c2.19,0,3.988-1.788,3.988-3.988
			v-30.466C459.082,182.338,457.292,180.549,455.093,180.549z"/>
		<path d="M452.856,113.096c1.654,0,3.031-0.909,3.873-2.209c0.144,0.019,0.21,0.144,0.354,0.144c1.463,0,2.658-1.195,2.658-2.659
			V87.793c0-1.472-1.195-2.658-2.658-2.658c-0.144,0-0.21,0.125-0.354,0.144c-0.832-1.291-2.219-2.199-3.873-2.199
			c-2.601,0-4.714,2.113-4.714,4.714v20.579C448.142,110.982,450.255,113.096,452.856,113.096z M450.8,87.793
			c0-1.128,0.918-2.056,2.056-2.056c0.908,0,1.539,0.66,1.808,1.482c-0.048,0.21-0.229,0.354-0.229,0.573v20.579
			c0,0.22,0.19,0.373,0.229,0.583c-0.269,0.822-0.909,1.482-1.808,1.482c-1.138,0-2.056-0.928-2.056-2.066V87.793z"/>
	</g>
</g>
</svg>