<?xml version="1.0" encoding="iso-8859-1"?>
<!-- Uploaded to: SVG Repo, www.svgrepo.com, Generator: SVG Repo Mixer Tools -->
<svg fill="#000000" height="800px" width="800px" version="1.1" id="Layer_1" xmlns="http://www.w3.org/2000/svg" xmlns:xlink="http://www.w3.org/1999/xlink" 
	 viewBox="0 0 512 512" xml:space="preserve">
<g>
	<g>
		<path d="M150.098,413.603v68.378c0,16.092,12.977,30.02,29.069,30.02h101.811c16.092,0,29.224-13.927,29.224-30.02v-68.378
			H150.098z"/>
	</g>
</g>
<g>
	<g>
		<path d="M280.978,0H179.167c-16.092,0-29.069,12.26-29.069,28.352V96.73h160.104V28.352C310.202,12.26,297.07,0,280.978,0z"/>
	</g>
</g>
<g>
	<g>
		<path d="M379.876,160.104c-0.876,0-1.296,0.047-2.964,0.135v74.78c1.668,0.088,2.088,0.135,2.964,0.135
			c13.816,0,25.388-11.201,25.388-25.016v-25.016C405.264,171.305,393.691,160.104,379.876,160.104z"/>
	</g>
</g>
<g>
	<g>
		<path d="M320.55,121.746H138.082c-17.311,0-31.345,14.034-31.345,31.345v205.817c0,17.311,14.034,31.345,31.345,31.345H320.55
			c17.311,0,31.345-14.034,31.345-31.345V153.091C351.896,135.78,337.862,121.746,320.55,121.746z"/>
	</g>
</g>
</svg>